<svg xmlns="http://www.w3.org/2000/svg" width="24" height="24" viewBox="0 0 24 24" fill="none" stroke="currentColor" stroke-width="1" stroke-linecap="round" stroke-linejoin="round"><path d="M8 14s1 1 2 1 2-1 2-1"></path><path d="M12 12s1 1 2 1 2-1 2-1"></path><path d="M6 12s1 1 2 1 2-1 2-1"></path><path d="M8 16s1 1 2 1 2-1 2-1"></path><path d="M12 16s1 1 2 1 2-1 2-1"></path><path d="M6 16s1 1 2 1 2-1 2-1"></path><path d="M8 18s1 1 2 1 2-1 2-1"></path><path d="M12 18s1 1 2 1 2-1 2-1"></path><path d="M6 18s1 1 2 1 2-1 2-1"></path><path d="M8 20s1 1 2 1 2-1 2-1"></path><path d="M12 20s1 1 2 1 2-1 2-1"></path><path d="M6 20s1 1 2 1 2-1 2-1"></path></svg>